<svg width="208" height="94" viewBox="0 0 208 94" fill="none" xmlns="http://www.w3.org/2000/svg">
<path d="M4.53066 84.69C4.89966 84.69 5.20566 84.384 5.20566 84.015C5.20566 83.646 4.89966 83.34 4.53066 83.34C4.16166 83.34 3.85566 83.646 3.85566 84.015C3.85566 84.384 4.16166 84.69 4.53066 84.69ZM4.53066 86.319L1.56066 83.349L1.29966 83.61L4.26966 86.58L1.29066 89.559L1.55166 89.82L4.53066 86.841L7.50066 89.811L7.76166 89.55L4.79166 86.58L7.76166 83.61L7.50066 83.349L4.53066 86.319ZM2.64066 86.58C2.64066 86.211 2.33466 85.905 1.96566 85.905C1.59666 85.905 1.29066 86.211 1.29066 86.58C1.29066 86.949 1.59666 87.255 1.96566 87.255C2.33466 87.255 2.64066 86.949 2.64066 86.58ZM6.42066 86.58C6.42066 86.949 6.72666 87.255 7.09566 87.255C7.46466 87.255 7.77066 86.949 7.77066 86.58C7.77066 86.211 7.46466 85.905 7.09566 85.905C6.72666 85.905 6.42066 86.211 6.42066 86.58ZM4.53066 88.47C4.16166 88.47 3.85566 88.776 3.85566 89.145C3.85566 89.514 4.16166 89.82 4.53066 89.82C4.89966 89.82 5.20566 89.514 5.20566 89.145C5.20566 88.776 4.89966 88.47 4.53066 88.47ZM9.87666 90H14.0257V89.289H12.1987C11.8657 89.289 11.4607 89.325 11.1187 89.352C12.6667 87.885 13.7017 86.544 13.7017 85.23C13.7017 84.051 12.9637 83.277 11.7847 83.277C10.9477 83.277 10.3807 83.664 9.84066 84.249L10.3177 84.717C10.6777 84.285 11.1457 83.952 11.6857 83.952C12.5047 83.952 12.9007 84.501 12.9007 85.257C12.9007 86.391 11.9467 87.705 9.87666 89.514V90ZM17.4248 90.117C18.6758 90.117 19.4769 88.974 19.4769 86.679C19.4769 84.393 18.6758 83.277 17.4248 83.277C16.1648 83.277 15.3638 84.384 15.3638 86.679C15.3638 88.974 16.1648 90.117 17.4248 90.117ZM17.4248 89.46C16.6688 89.46 16.1648 88.623 16.1648 86.679C16.1648 84.753 16.6688 83.934 17.4248 83.934C18.1718 83.934 18.6758 84.753 18.6758 86.679C18.6758 88.623 18.1718 89.46 17.4248 89.46ZM20.761 90H24.91V89.289H23.083C22.75 89.289 22.345 89.325 22.003 89.352C23.551 87.885 24.586 86.544 24.586 85.23C24.586 84.051 23.848 83.277 22.669 83.277C21.832 83.277 21.265 83.664 20.725 84.249L21.202 84.717C21.562 84.285 22.03 83.952 22.57 83.952C23.389 83.952 23.785 84.501 23.785 85.257C23.785 86.391 22.831 87.705 20.761 89.514V90ZM28.3092 90.117C29.5602 90.117 30.3612 88.974 30.3612 86.679C30.3612 84.393 29.5602 83.277 28.3092 83.277C27.0492 83.277 26.2482 84.384 26.2482 86.679C26.2482 88.974 27.0492 90.117 28.3092 90.117ZM28.3092 89.46C27.5532 89.46 27.0492 88.623 27.0492 86.679C27.0492 84.753 27.5532 83.934 28.3092 83.934C29.0562 83.934 29.5602 84.753 29.5602 86.679C29.5602 88.623 29.0562 89.46 28.3092 89.46ZM33.8504 87.984V86.202H35.8664V87.984H33.8504ZM39.7994 87.984H36.5414V86.202H39.1784V85.572H36.5414V84.204H39.3854V83.556H34.0214C34.1654 83.25 34.3094 82.926 34.4354 82.611L33.7604 82.449C33.3374 83.655 32.5814 84.816 31.7354 85.554C31.9064 85.644 32.1854 85.869 32.3114 85.977C32.7974 85.509 33.2744 84.897 33.6794 84.204H35.8664V85.572H33.1844V87.984H31.7084V88.632H35.8664V90.693H36.5414V88.632H39.7994V87.984ZM41.7344 87.525L43.2374 85.275C43.4264 84.951 43.6064 84.627 43.7684 84.303H43.8044C43.7864 84.645 43.7594 85.176 43.7594 85.5V87.525H41.7344ZM43.7594 90H44.5334V88.182H45.4064V87.525H44.5334V83.394H43.6244L40.8794 87.642V88.182H43.7594V90ZM48.5986 87.246C48.6706 86.715 48.6976 86.202 48.6976 85.734H52.8106V87.246H48.5986ZM52.8106 83.601V85.095H48.6976V83.601H52.8106ZM53.5036 82.944H48.0226V85.698C48.0226 87.129 47.8786 88.956 46.4476 90.216C46.5826 90.315 46.8526 90.558 46.9426 90.702C47.8156 89.937 48.2656 88.92 48.4906 87.903H52.8106V89.703C52.8106 89.901 52.7386 89.964 52.5316 89.973C52.3246 89.973 51.6046 89.982 50.8576 89.955C50.9656 90.144 51.0916 90.459 51.1366 90.648C52.0996 90.648 52.6936 90.639 53.0356 90.522C53.3686 90.414 53.5036 90.18 53.5036 89.712V82.944ZM58.9756 87.417C59.4076 87.417 59.8576 87.147 60.2266 86.517L59.7586 86.184C59.5336 86.616 59.2816 86.796 58.9936 86.796C58.4266 86.796 58.0036 85.95 57.2116 85.95C56.7706 85.95 56.3206 86.22 55.9516 86.85L56.4106 87.174C56.6446 86.742 56.8966 86.562 57.1846 86.562C57.7516 86.562 58.1836 87.417 58.9756 87.417ZM61.4298 90H65.5788V89.289H63.7518C63.4188 89.289 63.0138 89.325 62.6718 89.352C64.2198 87.885 65.2548 86.544 65.2548 85.23C65.2548 84.051 64.5168 83.277 63.3378 83.277C62.5008 83.277 61.9338 83.664 61.3938 84.249L61.8708 84.717C62.2308 84.285 62.6988 83.952 63.2388 83.952C64.0578 83.952 64.4538 84.501 64.4538 85.257C64.4538 86.391 63.4998 87.705 61.4298 89.514V90ZM68.978 90.117C70.229 90.117 71.03 88.974 71.03 86.679C71.03 84.393 70.229 83.277 68.978 83.277C67.718 83.277 66.917 84.384 66.917 86.679C66.917 88.974 67.718 90.117 68.978 90.117ZM68.978 89.46C68.222 89.46 67.718 88.623 67.718 86.679C67.718 84.753 68.222 83.934 68.978 83.934C69.725 83.934 70.229 84.753 70.229 86.679C70.229 88.623 69.725 89.46 68.978 89.46ZM72.3142 90H76.4632V89.289H74.6362C74.3032 89.289 73.8982 89.325 73.5562 89.352C75.1042 87.885 76.1392 86.544 76.1392 85.23C76.1392 84.051 75.4012 83.277 74.2222 83.277C73.3852 83.277 72.8182 83.664 72.2782 84.249L72.7552 84.717C73.1152 84.285 73.5832 83.952 74.1232 83.952C74.9422 83.952 75.3382 84.501 75.3382 85.257C75.3382 86.391 74.3842 87.705 72.3142 89.514V90ZM78.1524 90H81.7704V89.316H80.4474V83.394H79.8174C79.4574 83.61 79.0344 83.763 78.4494 83.871V84.393H79.6194V89.316H78.1524V90ZM85.4035 87.984V86.202H87.4195V87.984H85.4035ZM91.3525 87.984H88.0945V86.202H90.7315V85.572H88.0945V84.204H90.9385V83.556H85.5745C85.7185 83.25 85.8625 82.926 85.9885 82.611L85.3135 82.449C84.8905 83.655 84.1345 84.816 83.2885 85.554C83.4595 85.644 83.7385 85.869 83.8645 85.977C84.3505 85.509 84.8275 84.897 85.2325 84.204H87.4195V85.572H84.7375V87.984H83.2615V88.632H87.4195V90.693H88.0945V88.632H91.3525V87.984ZM94.8895 86.517C95.6905 86.517 96.0865 87.084 96.0865 87.975C96.0865 88.875 95.5915 89.478 94.9615 89.478C94.1335 89.478 93.6385 88.731 93.5395 87.363C93.9445 86.76 94.4755 86.517 94.8895 86.517ZM94.9615 90.117C95.9875 90.117 96.8515 89.253 96.8515 87.975C96.8515 86.598 96.1405 85.905 95.0245 85.905C94.5025 85.905 93.9265 86.211 93.5215 86.706C93.5575 84.654 94.3225 83.961 95.2225 83.961C95.6275 83.961 96.0235 84.15 96.2845 84.465L96.7345 83.952C96.3745 83.565 95.8795 83.277 95.1955 83.277C93.9175 83.277 92.7565 84.267 92.7565 86.85C92.7565 89.028 93.6925 90.117 94.9615 90.117ZM100.152 87.246C100.224 86.715 100.251 86.202 100.251 85.734H104.364V87.246H100.152ZM104.364 83.601V85.095H100.251V83.601H104.364ZM105.057 82.944H99.5757V85.698C99.5757 87.129 99.4317 88.956 98.0007 90.216C98.1357 90.315 98.4057 90.558 98.4957 90.702C99.3687 89.937 99.8187 88.92 100.044 87.903H104.364V89.703C104.364 89.901 104.292 89.964 104.085 89.973C103.878 89.973 103.158 89.982 102.411 89.955C102.519 90.144 102.645 90.459 102.69 90.648C103.653 90.648 104.247 90.639 104.589 90.522C104.922 90.414 105.057 90.18 105.057 89.712V82.944ZM109.881 90.117C111.258 90.117 112.122 89.289 112.122 88.245C112.122 87.264 111.528 86.814 110.763 86.481L109.818 86.076C109.305 85.86 108.729 85.617 108.729 84.978C108.729 84.384 109.215 84.006 109.962 84.006C110.574 84.006 111.06 84.249 111.465 84.627L111.906 84.096C111.438 83.61 110.745 83.277 109.962 83.277C108.765 83.277 107.883 84.015 107.883 85.032C107.883 85.995 108.612 86.463 109.224 86.724L110.178 87.138C110.799 87.417 111.276 87.633 111.276 88.308C111.276 88.956 110.754 89.388 109.89 89.388C109.206 89.388 108.54 89.064 108.072 88.569L107.568 89.136C108.144 89.739 108.945 90.117 109.881 90.117ZM113.793 90H114.612V86.454C115.107 85.959 115.449 85.707 115.953 85.707C116.601 85.707 116.88 86.094 116.88 87.012V90H117.699V86.904C117.699 85.653 117.231 84.987 116.205 84.987C115.539 84.987 115.035 85.356 114.585 85.806L114.612 84.798V82.836H113.793V90ZM121.609 90.117C122.806 90.117 123.877 89.181 123.877 87.561C123.877 85.932 122.806 84.987 121.609 84.987C120.412 84.987 119.341 85.932 119.341 87.561C119.341 89.181 120.412 90.117 121.609 90.117ZM121.609 89.433C120.763 89.433 120.196 88.686 120.196 87.561C120.196 86.436 120.763 85.671 121.609 85.671C122.455 85.671 123.031 86.436 123.031 87.561C123.031 88.686 122.455 89.433 121.609 89.433ZM125.618 92.061H126.437V90.405L126.419 89.55C126.86 89.91 127.328 90.117 127.769 90.117C128.894 90.117 129.893 89.154 129.893 87.48C129.893 85.977 129.209 84.987 127.949 84.987C127.382 84.987 126.833 85.311 126.392 85.671H126.365L126.293 85.113H125.618V92.061ZM127.634 89.433C127.31 89.433 126.878 89.298 126.437 88.92V86.355C126.914 85.914 127.337 85.68 127.751 85.68C128.678 85.68 129.038 86.409 129.038 87.489C129.038 88.704 128.444 89.433 127.634 89.433ZM131.649 90H132.468V85.113H131.649V90ZM132.063 84.105C132.387 84.105 132.612 83.889 132.612 83.556C132.612 83.241 132.387 83.025 132.063 83.025C131.739 83.025 131.514 83.241 131.514 83.556C131.514 83.889 131.739 84.105 132.063 84.105ZM134.712 90H135.531V85.779H136.566V85.113H135.531V84.339C135.531 83.709 135.756 83.376 136.224 83.376C136.395 83.376 136.593 83.421 136.773 83.502L136.953 82.881C136.728 82.782 136.431 82.719 136.134 82.719C135.162 82.719 134.712 83.34 134.712 84.33V85.113L134.046 85.158V85.779H134.712V90ZM138.035 92.106C139.007 92.106 139.52 91.368 139.853 90.405L141.698 85.113H140.897L140.024 87.831C139.889 88.263 139.745 88.758 139.61 89.199H139.565C139.412 88.758 139.241 88.254 139.097 87.831L138.098 85.113H137.243L139.205 90.009L139.097 90.378C138.899 90.981 138.548 91.431 137.99 91.431C137.864 91.431 137.72 91.386 137.621 91.35L137.459 92.007C137.612 92.07 137.801 92.106 138.035 92.106ZM149.154 82.989L148.677 83.187C148.92 83.529 149.226 84.069 149.406 84.438L149.892 84.222C149.712 83.853 149.379 83.304 149.154 82.989ZM150.144 82.629L149.667 82.827C149.928 83.169 150.216 83.673 150.414 84.069L150.9 83.853C150.729 83.52 150.387 82.953 150.144 82.629ZM144.231 87.291C143.916 88.047 143.412 88.992 142.845 89.739L143.61 90.063C144.114 89.343 144.6 88.416 144.933 87.588C145.311 86.67 145.626 85.338 145.752 84.771C145.788 84.582 145.86 84.321 145.914 84.123L145.113 83.952C144.996 84.996 144.618 86.364 144.231 87.291ZM148.659 86.949C149.037 87.912 149.451 89.127 149.676 90.045L150.477 89.784C150.243 88.974 149.766 87.597 149.397 86.706C149.019 85.752 148.443 84.51 148.083 83.862L147.354 84.105C147.75 84.771 148.299 86.022 148.659 86.949ZM156.066 84.816L155.409 85.041C155.598 85.446 156.012 86.589 156.111 86.994L156.777 86.76C156.66 86.364 156.219 85.176 156.066 84.816ZM159.324 85.32L158.55 85.077C158.415 86.229 157.947 87.372 157.308 88.155C156.57 89.082 155.427 89.766 154.383 90.072L154.977 90.675C155.985 90.288 157.083 89.595 157.911 88.533C158.559 87.723 158.946 86.76 159.189 85.77C159.225 85.653 159.261 85.509 159.324 85.32ZM153.978 85.266L153.312 85.527C153.492 85.842 153.978 87.084 154.113 87.552L154.797 87.3C154.626 86.832 154.158 85.653 153.978 85.266ZM167.613 83.286L167.118 83.493C167.415 83.907 167.712 84.447 167.937 84.915L168.45 84.681C168.243 84.258 167.838 83.61 167.613 83.286ZM168.792 82.854L168.288 83.07C168.594 83.475 168.9 83.988 169.143 84.465L169.656 84.231C169.431 83.817 169.035 83.169 168.792 82.854ZM163.77 83.151L163.365 83.754C163.887 84.06 164.868 84.708 165.3 85.041L165.723 84.42C165.336 84.141 164.301 83.448 163.77 83.151ZM162.42 89.586L162.834 90.315C163.671 90.144 164.913 89.73 165.813 89.199C167.253 88.353 168.495 87.192 169.278 85.986L168.846 85.239C168.117 86.508 166.929 87.687 165.435 88.542C164.526 89.055 163.401 89.415 162.42 89.586ZM162.411 85.176L162.006 85.788C162.555 86.067 163.527 86.697 163.977 87.021L164.382 86.391C163.995 86.112 162.942 85.464 162.411 85.176ZM172.779 89.568V88.236H177.576V89.568H172.779ZM177.576 86.301V87.606H172.779V86.301H177.576ZM177.576 84.33V85.671H172.779V84.33H177.576ZM175.038 83.691C175.191 83.349 175.353 82.944 175.488 82.557L174.723 82.458C174.651 82.809 174.507 83.295 174.372 83.691H172.113V90.702H172.779V90.198H177.576V90.657H178.269V83.691H175.038ZM184.218 87.561C183.993 87.363 183.201 86.67 182.778 86.337C183.255 85.734 183.669 85.068 183.948 84.375L183.57 84.123L183.453 84.15H182.67V82.476H182.013V84.15H180.6V84.762H183.102C182.481 85.959 181.356 87.093 180.285 87.714C180.393 87.84 180.564 88.146 180.636 88.317C181.095 88.02 181.563 87.642 182.013 87.192V90.684H182.67V86.958C183.075 87.336 183.57 87.84 183.804 88.101L184.218 87.561ZM186.666 89.775V86.04H188.583V85.392H186.666V82.539H186V85.392H184.074V86.04H186V89.775H183.723V90.432H188.763V89.775H186.666ZM192.534 82.782H190.32V83.322H192.534V82.782ZM192.786 83.961H189.897V84.51H192.786V83.961ZM192.552 85.176H190.266V85.707H192.552V85.176ZM190.266 86.904H192.552V86.364H190.266V86.904ZM191.994 88.119V89.622H190.797V88.119H191.994ZM192.552 90.162V87.57H190.257V90.585H190.797V90.162H192.552ZM194.235 85.752V86.265H196.872V85.752H195.783V84.888H196.737V84.375H195.783V83.601H195.234V84.375H194.307V84.888H195.234V85.752H194.235ZM196.17 87.471V88.758H194.874V87.471H196.17ZM196.683 89.271V86.958H194.361V89.622H194.874V89.271H196.683ZM197.853 82.845H193.236V86.049C193.236 87.372 193.182 89.127 192.48 90.369C192.633 90.441 192.903 90.63 193.002 90.738C193.749 89.424 193.848 87.444 193.848 86.049V83.43H197.241V89.838C197.241 89.991 197.196 90.027 197.061 90.027C196.908 90.036 196.44 90.045 195.963 90.018C196.044 90.198 196.134 90.504 196.161 90.675C196.827 90.675 197.277 90.666 197.52 90.558C197.772 90.45 197.853 90.234 197.853 89.838V82.845ZM199.392 87.696L200.049 88.38C200.193 88.191 200.4 87.903 200.58 87.66C201.039 87.102 201.786 86.112 202.209 85.599C202.515 85.212 202.695 85.14 203.073 85.572C203.487 86.031 204.18 86.895 204.765 87.552C205.377 88.254 206.187 89.19 206.871 89.838L207.447 89.19C206.637 88.461 205.746 87.516 205.197 86.922C204.63 86.31 203.937 85.419 203.397 84.861C202.803 84.258 202.335 84.348 201.804 84.96C201.273 85.59 200.517 86.625 200.04 87.102C199.797 87.354 199.617 87.534 199.392 87.696ZM205.197 83.925L204.684 84.15C204.981 84.564 205.296 85.131 205.521 85.599L206.052 85.365C205.845 84.933 205.422 84.258 205.197 83.925ZM206.358 83.466L205.854 83.7C206.16 84.105 206.484 84.654 206.727 85.131L207.24 84.879C207.033 84.456 206.592 83.781 206.358 83.466Z" fill="white"/>
<path d="M66.2969 16.5625C66.2969 19.9062 65.5469 23.0469 64.0469 25.9844C62.5781 28.8906 60.4688 31.75 57.7188 34.5625C55 37.3438 51.7188 40.1406 47.875 42.9531C44.0312 45.7656 39.7656 48.7344 35.0781 51.8594H65.125V61H25V52.5625C31.0312 47.8125 36.0312 43.6406 40 40.0469C44 36.4531 47.1875 33.2656 49.5625 30.4844C51.9375 27.6719 53.6094 25.1719 54.5781 22.9844C55.5469 20.7656 56.0312 18.6562 56.0312 16.6562C56.0312 15.7188 55.8906 14.7188 55.6094 13.6562C55.3594 12.5625 54.8906 11.5625 54.2031 10.6562C53.5156 9.71875 52.5781 8.95312 51.3906 8.35938C50.2031 7.73438 48.7031 7.42188 46.8906 7.42188C45.0469 7.42188 43.4688 7.76562 42.1562 8.45312C40.875 9.14062 39.8125 10.0156 38.9688 11.0781C38.1562 12.1094 37.5312 13.2656 37.0938 14.5469C36.6875 15.8281 36.4375 17.0781 36.3438 18.2969H26.0781C26.4531 12.2031 28.4219 7.64062 31.9844 4.60938C35.5469 1.57812 40.6094 0.0625 47.1719 0.0625C50.2344 0.0625 52.9531 0.453125 55.3281 1.23438C57.7031 2.01562 59.7031 3.125 61.3281 4.5625C62.9531 6 64.1875 7.73438 65.0312 9.76562C65.875 11.7969 66.2969 14.0625 66.2969 16.5625Z" fill="white"/>
<path d="M118.141 43.2344C118.141 45.3906 117.719 47.5312 116.875 49.6562C116.062 51.7812 114.781 53.6875 113.031 55.375C111.312 57.0312 109.094 58.3906 106.375 59.4531C103.656 60.4844 100.406 61 96.625 61C92.8438 61 89.7188 60.4844 87.25 59.4531C84.7812 58.3906 82.8125 57.0625 81.3438 55.4688C79.9062 53.8438 78.8906 52.0469 78.2969 50.0781C77.7031 48.1094 77.4062 46.1875 77.4062 44.3125H87.6719C87.7344 45.625 87.9844 46.8438 88.4219 47.9688C88.8906 49.0938 89.5312 50.0781 90.3438 50.9219C91.1562 51.7656 92.125 52.4219 93.25 52.8906C94.4062 53.3594 95.6875 53.5938 97.0938 53.5938C98.5 53.5938 99.8438 53.3594 101.125 52.8906C102.438 52.3906 103.594 51.7031 104.594 50.8281C105.594 49.9219 106.391 48.8438 106.984 47.5938C107.578 46.3125 107.875 44.8906 107.875 43.3281C107.875 42.7031 107.734 41.8125 107.453 40.6562C107.172 39.4688 106.641 38.2969 105.859 37.1406C105.109 35.9531 104.062 34.9375 102.719 34.0938C101.406 33.2188 99.7188 32.7812 97.6562 32.7812H92.4062V26.2656C95.7812 26.2656 98.4219 25.9531 100.328 25.3281C102.234 24.6719 103.672 23.8438 104.641 22.8438C105.609 21.8438 106.203 20.75 106.422 19.5625C106.672 18.3438 106.797 17.1875 106.797 16.0938C106.797 14.9688 106.656 13.8594 106.375 12.7656C106.094 11.6719 105.625 10.6875 104.969 9.8125C104.344 8.9375 103.5 8.23438 102.438 7.70312C101.375 7.14062 100.047 6.85938 98.4531 6.85938C95.3281 6.85938 92.9844 7.57812 91.4219 9.01562C89.8906 10.4219 89.0312 12.5781 88.8438 15.4844H78.5781C78.7031 12.9219 79.2812 10.6875 80.3125 8.78125C81.375 6.84375 82.7656 5.23438 84.4844 3.95312C86.2344 2.64062 88.25 1.67188 90.5312 1.04688C92.8438 0.390625 95.3281 0.0625 97.9844 0.0625C100.609 0.0625 103.078 0.40625 105.391 1.09375C107.734 1.75 109.766 2.75 111.484 4.09375C113.203 5.4375 114.562 7.10938 115.562 9.10938C116.562 11.1094 117.062 13.4375 117.062 16.0938C117.062 18.25 116.734 20.0625 116.078 21.5312C115.453 22.9688 114.625 24.1719 113.594 25.1406C112.594 26.1094 111.453 26.9062 110.172 27.5312C108.891 28.125 107.609 28.6562 106.328 29.125C107.578 29.4688 108.891 30 110.266 30.7188C111.672 31.4062 112.953 32.3281 114.109 33.4844C115.297 34.6094 116.266 35.9844 117.016 37.6094C117.766 39.2031 118.141 41.0781 118.141 43.2344Z" fill="white"/>
<path d="M168.906 40.75C168.906 43.1875 168.5 45.6094 167.688 48.0156C166.875 50.4219 165.578 52.5938 163.797 54.5312C162.047 56.4375 159.797 58 157.047 59.2188C154.328 60.4062 151.047 61 147.203 61C144.641 61 142.422 60.7188 140.547 60.1562C138.672 59.5938 137.062 58.8594 135.719 57.9531C134.375 57.0469 133.281 56.0312 132.438 54.9062C131.594 53.75 130.922 52.6094 130.422 51.4844C129.953 50.3281 129.625 49.2344 129.438 48.2031C129.25 47.1406 129.156 46.25 129.156 45.5312H138.391C138.516 46.625 138.797 47.7031 139.234 48.7656C139.703 49.7969 140.328 50.7188 141.109 51.5312C141.922 52.3438 142.875 53 143.969 53.5C145.062 53.9688 146.312 54.2031 147.719 54.2031C149.594 54.2031 151.219 53.8594 152.594 53.1719C153.969 52.4531 155.094 51.5 155.969 50.3125C156.875 49.0938 157.547 47.6719 157.984 46.0469C158.422 44.3906 158.641 42.625 158.641 40.75C158.641 38.9062 158.438 37.2344 158.031 35.7344C157.656 34.2344 157.047 32.9688 156.203 31.9375C155.391 30.875 154.312 30.0625 152.969 29.5C151.656 28.9375 150.062 28.6562 148.188 28.6562C146.531 28.6562 145.109 28.875 143.922 29.3125C142.734 29.75 141.734 30.3438 140.922 31.0938C140.109 31.8438 139.453 32.7188 138.953 33.7188C138.484 34.6875 138.141 35.7188 137.922 36.8125H130.422L131.547 1.75H164.781V10.8906H138.766L138.109 27.2031C139.078 26.2344 140.031 25.4062 140.969 24.7188C141.938 24.0312 142.938 23.4688 143.969 23.0312C145 22.5938 146.078 22.2812 147.203 22.0938C148.359 21.9062 149.578 21.8125 150.859 21.8125C153.797 21.8125 156.391 22.3594 158.641 23.4531C160.891 24.5156 162.781 25.9375 164.312 27.7188C165.844 29.4688 166.984 31.4844 167.734 33.7656C168.516 36.0156 168.906 38.3438 168.906 40.75Z" fill="white"/>
<path d="M194.406 57.1562C194.406 57.8203 194.309 58.3984 194.113 58.8906C193.926 59.375 193.668 59.7812 193.34 60.1094C193.012 60.4297 192.625 60.6719 192.18 60.8359C191.734 60.9922 191.262 61.0703 190.762 61.0703C190.262 61.0703 189.789 60.9922 189.344 60.8359C188.906 60.6719 188.523 60.4297 188.195 60.1094C187.867 59.7812 187.605 59.375 187.41 58.8906C187.223 58.3984 187.129 57.8203 187.129 57.1562C187.129 56.5 187.223 55.9258 187.41 55.4336C187.605 54.9414 187.867 54.5352 188.195 54.2148C188.523 53.8867 188.906 53.6445 189.344 53.4883C189.789 53.3242 190.262 53.2422 190.762 53.2422C191.262 53.2422 191.734 53.3242 192.18 53.4883C192.625 53.6445 193.012 53.8867 193.34 54.2148C193.668 54.5352 193.926 54.9414 194.113 55.4336C194.309 55.9258 194.406 56.5 194.406 57.1562ZM182.91 61.293H180.531L189.215 45.9766H191.594L182.91 61.293ZM184.809 50.1016C184.809 50.7578 184.711 51.332 184.516 51.8242C184.328 52.3164 184.066 52.7266 183.73 53.0547C183.402 53.375 183.016 53.6172 182.57 53.7812C182.125 53.9375 181.652 54.0156 181.152 54.0156C180.652 54.0156 180.184 53.9375 179.746 53.7812C179.309 53.6172 178.926 53.375 178.598 53.0547C178.27 52.7266 178.008 52.3164 177.812 51.8242C177.625 51.332 177.531 50.7578 177.531 50.1016C177.531 49.4453 177.625 48.8711 177.812 48.3789C178.008 47.8867 178.27 47.4805 178.598 47.1602C178.926 46.832 179.309 46.5898 179.746 46.4336C180.184 46.2695 180.652 46.1875 181.152 46.1875C181.652 46.1875 182.125 46.2695 182.57 46.4336C183.016 46.5898 183.402 46.832 183.73 47.1602C184.066 47.4805 184.328 47.8867 184.516 48.3789C184.711 48.8711 184.809 49.4453 184.809 50.1016ZM192.414 57.1562C192.414 56.8047 192.387 56.4844 192.332 56.1953C192.285 55.9062 192.199 55.6602 192.074 55.457C191.949 55.2461 191.777 55.0859 191.559 54.9766C191.348 54.8672 191.082 54.8125 190.762 54.8125C190.449 54.8125 190.184 54.8672 189.965 54.9766C189.754 55.0859 189.582 55.2461 189.449 55.457C189.324 55.6602 189.234 55.9062 189.18 56.1953C189.125 56.4844 189.098 56.8047 189.098 57.1562C189.098 57.5078 189.121 57.8281 189.168 58.1172C189.223 58.3984 189.312 58.6406 189.438 58.8438C189.562 59.0469 189.73 59.207 189.941 59.3242C190.16 59.4336 190.434 59.4883 190.762 59.4883C191.082 59.4883 191.348 59.4336 191.559 59.3242C191.777 59.207 191.949 59.0469 192.074 58.8438C192.199 58.6406 192.285 58.3984 192.332 58.1172C192.387 57.8281 192.414 57.5078 192.414 57.1562ZM182.816 50.1016C182.816 49.75 182.789 49.4297 182.734 49.1406C182.688 48.8516 182.598 48.6055 182.465 48.4023C182.34 48.1914 182.172 48.0312 181.961 47.9219C181.75 47.8125 181.48 47.7578 181.152 47.7578C180.84 47.7578 180.578 47.8125 180.367 47.9219C180.156 48.0312 179.984 48.1914 179.852 48.4023C179.727 48.6055 179.637 48.8516 179.582 49.1406C179.527 49.4297 179.5 49.75 179.5 50.1016C179.5 50.4531 179.523 50.7734 179.57 51.0625C179.625 51.3438 179.711 51.5859 179.828 51.7891C179.953 51.9922 180.121 52.1523 180.332 52.2695C180.551 52.3789 180.824 52.4336 181.152 52.4336C181.48 52.4336 181.75 52.3789 181.961 52.2695C182.172 52.1523 182.34 51.9922 182.465 51.7891C182.598 51.5859 182.688 51.3438 182.734 51.0625C182.789 50.7734 182.816 50.4531 182.816 50.1016Z" fill="white"/>
</svg>
